<svg xmlns="http://www.w3.org/2000/svg" width="1273" height="545"  xmlns:v="https://vecta.io/nano"><path d="M558.952 326.178V192.826h-21.8v133.352h21.8zm121.677-65.764q0-36.941-36.3-36.941a43.41 43.41 0 0 0-18.609 3.927c-5.309 2.368-9.811 6.236-12.953 11.127h-1.094l-3.01-13.225H591.88v100.88h21.435V275.92q0-18.88 6.293-26.907 6.293-8.027 19.885-8.027 10.213 0 14.913 5.747 4.7 5.747 4.7 17.421v62.024h21.526v-65.764zm114.837 12.314q0-16.145 5.794-23.943 5.794-7.798 18.29-7.8 9.3 0 13.72 5.7 4.42 5.7 4.43 17.285v62.206h21.43v-65.762q0-18.7-8.25-27.819-8.265-9.12-26.32-9.122c-6.448-.122-12.83 1.319-18.6 4.2a30.72 30.72 0 0 0-12.592 11.675h-1.46q-7.572-15.87-30.829-15.871c-6.078-.069-12.088 1.274-17.559 3.923-5.086 2.4-9.33 6.278-12.177 11.127h-1.094l-3.01-13.225h-16.783v100.88h21.435V275.92q0-18.789 5.792-26.862 5.792-8.073 18.2-8.072 9.3 0 13.682 5.7 4.382 5.7 4.379 17.285v62.206h21.526v-53.45zm172.024 53.45v-67.953q0-17.967-9.8-26.36-9.8-8.393-29.05-8.392c-6.208.052-12.39.801-18.43 2.235-6.245 1.394-12.285 3.586-17.97 6.522l6.93 15.323c4.441-2.091 9.014-3.888 13.69-5.381a48.38 48.38 0 0 1 14.86-2.28q9.495 0 14 4.788 4.505 4.788 4.52 14.457v5.382l-17.42.547q-23.715.732-35.3 8.665-11.585 7.933-11.59 23.533 0 14.687 8.35 22.712 8.35 8.025 23.21 8.024 11.6 0 18.98-3.33 7.38-3.33 14.68-12.541h.73l4.29 14.046h15.32zM908.2 307.89q-4.005-3.693-4.01-10.443 0-9.3 6.89-13.819 6.89-4.519 22.02-5.062l12.96-.548v8.757q0 11.766-7.07 18.288-7.07 6.522-18.75 6.521-8.025 0-12.04-3.694zm177.96-47.476q0-36.941-36.3-36.941c-6.417-.084-12.773 1.256-18.61 3.923-5.309 2.367-9.81 6.235-12.95 11.127h-1.1l-3.01-13.225h-16.78v100.88h21.43V275.92q0-18.88 6.3-26.907 6.285-8.025 19.88-8.027 10.215 0 14.92 5.747 4.705 5.747 4.69 17.421v62.024h21.53v-65.764zm108.27 65.764v-67.953q0-17.967-9.81-26.36-9.8-8.391-29.05-8.392c-6.204.051-12.383.801-18.42 2.235-6.245 1.394-12.285 3.586-17.97 6.522l6.93 15.323a112.85 112.85 0 0 1 13.68-5.381 48.49 48.49 0 0 1 14.87-2.28q9.48 0 14 4.788 4.52 4.788 4.52 14.457v5.382l-17.43.547q-23.715.732-35.29 8.665-11.6 7.937-11.59 23.533 0 14.687 8.35 22.712 8.35 8.025 23.21 8.024 11.58 0 18.97-3.33 7.39-3.33 14.69-12.541h.73l4.28 14.046h15.33zm-59.29-18.288q-4.02-3.693-4.01-10.443 0-9.3 6.88-13.819 6.88-4.519 22.03-5.062l12.95-.548v8.757q0 11.766-7.07 18.288-7.07 6.522-18.74 6.521-8.025 0-12.04-3.694z" fill="#293845" fill-rule="evenodd"/><path d="M47 520h70a0 0 0 0 1 0 0v12.5a12.5 12.5 0 0 1-12.5 12.5h-45A12.5 12.5 0 0 1 47 532.5V520a0 0 0 0 1 0 0zm287 0h70a0 0 0 0 1 0 0v12.5a12.5 12.5 0 0 1-12.5 12.5h-45a12.5 12.5 0 0 1-12.5-12.5V520a0 0 0 0 1 0 0z" fill="#5b5b5b"/><rect width="450" height="523" rx="16" fill="#b3b3b3"/><path d="M0 214.955h450v20.09H0v-20.09z" fill-rule="evenodd" fill="#999"/><g fill="#fff"><rect x="45" y="69" width="27" height="75" rx="13.5"/><rect x="47" y="300.812" width="27" height="111.376" rx="12"/></g></svg>